<svg width="25" height="60" viewBox="0 0 25 60" fill="none" xmlns="http://www.w3.org/2000/svg">
<path d="M1.29035 59.3548V58.7097H0.645172H0V55.4251V52.1406H0.641332H1.28266L1.31583 53.4603L1.349 54.78L1.96484 54.8154L2.58069 54.8509V47.6305V40.4102H1.93366H1.28663L1.31782 37.155L1.349 33.8998L1.96484 33.8644L2.58069 33.8289V35.184V36.5392H3.22586H3.87104V31.3253V26.1114L3.25519 26.0759L2.63934 26.0405L2.60816 22.7853L2.57698 19.5301H3.22401H3.87104V20.8204V22.1108H4.57486H5.27869V15.6004V9.09H5.92386H6.56903V10.3804V11.6707H12.4342H18.2994V10.3804V9.09H18.9446H19.5898V15.6004V22.1108H20.235H20.8801V20.8204V19.5301H21.5253H22.1705V22.8146V26.0991H21.5253H20.8801V31.3191V36.5392H21.5215H22.1628L22.196 35.2195L22.2291 33.8998L22.845 33.8644L23.4608 33.8289V37.1196V40.4102H22.8148H22.1687L22.1989 47.5951L22.2291 54.78L22.8411 54.8153L23.453 54.8506L23.4863 53.5249L23.5195 52.1993L24.1353 52.1638L24.7512 52.1284V55.419V58.7097H24.106H23.4608V59.3548V60H12.3756H1.29035V59.3548ZM6.56903 56.7741V56.129H3.92969H1.29035V56.7741V57.4193H3.92969H6.56903V56.7741ZM11.7304 56.7741V56.129H9.7949H7.85938V56.7741V57.4193H9.7949H11.7304V56.7741ZM17.0091 56.7741V56.129H15.0149H13.0208V56.7741V57.4193H15.0149H17.0091V56.7741ZM23.4608 56.7741V56.129H20.8801H18.2994V56.7741V57.4193H20.8801H23.4608V56.7741ZM7.8359 54.1055L7.87109 53.431H7.22006H6.56903V54.1409V54.8509L7.18488 54.8154L7.80072 54.78L7.8359 54.1055ZM13.0208 54.1348V53.431H12.3756H11.7304V54.0566C11.7304 54.4007 11.7656 54.7174 11.8086 54.7604C11.8516 54.8034 12.142 54.8386 12.4538 54.8386H13.0208V54.1348ZM18.276 54.1055L18.3112 53.431H17.6601H17.0091V54.1409V54.8509L17.6249 54.8154L18.2408 54.78L18.276 54.1055ZM10.4401 47.738C10.4401 44.2866 10.4113 44.1201 9.70878 43.5032C8.77637 42.6846 7.2862 42.9813 6.75987 44.0905C6.59821 44.4312 6.56903 44.9787 6.56903 47.6715V50.8503H8.50455H10.4401V47.738ZM18.2988 47.8297C18.2984 46.141 18.2454 44.6194 18.1786 44.3789C18.0327 43.8536 17.4123 43.2854 16.7764 43.0949C15.8419 42.8149 14.7155 43.4747 14.4412 44.4627C14.3634 44.7426 14.3122 46.1003 14.3118 47.8883L14.3111 50.8503H16.3053H18.2995L18.2988 47.8297H18.2988ZM11.7304 38.4747V37.8295H7.15555H2.58069V38.4747V39.1199H7.15555H11.7304V38.4747ZM22.1705 38.4747V37.8295H17.5956H13.0208V38.4747V39.1199H17.5956H22.1705V38.4747ZM10.4401 31.0141V28.1871L10.0412 27.7883C9.71427 27.4613 9.55362 27.3894 9.14972 27.3894C8.74583 27.3894 8.58517 27.4613 8.25821 27.7883L7.85938 28.1871V31.0141V33.8412H9.14972H10.4401V31.0141ZM17.0091 31.1981C17.0091 28.36 16.9417 27.954 16.4089 27.5807C15.7337 27.1078 14.6557 27.5023 14.4332 28.3036C14.3668 28.5428 14.3121 29.8866 14.3118 31.2898L14.3111 33.8412H15.6601H17.0091L17.0091 31.1981ZM20.8801 24.1042V23.3996L12.4049 23.4297L3.92969 23.4598L3.89296 23.9717C3.87276 24.2533 3.88431 24.5568 3.91861 24.6462C3.97096 24.7827 5.3381 24.8088 12.4306 24.8088H20.8801V24.1042ZM13.9545 19.1107C15.0473 18.516 15.6351 17.5104 15.6293 16.2456C15.625 15.3005 15.398 14.7519 14.7042 14.0102C12.7451 11.9158 9.14972 13.3627 9.14972 16.2456C9.14972 17.5634 10.1352 18.9622 11.3334 19.3449C12.1734 19.6132 13.1998 19.5215 13.9545 19.1107V19.1107ZM12.4636 17.0346L11.7304 16.6647V15.5167V14.3687H12.3756H13.0208V15.1134V15.858L13.49 16.0696C13.748 16.186 13.9592 16.2982 13.9592 16.3189C13.9592 16.4888 13.4162 17.4171 13.32 17.4116C13.2522 17.4077 12.8668 17.238 12.4636 17.0346ZM7.27925 10.2924C7.28277 10.244 8.43748 7.9084 9.84528 5.1022L12.4049 0L15.0005 5.19017L17.5961 10.3804H12.4345C9.5956 10.3804 7.27573 10.3408 7.27925 10.2924V10.2924Z" fill="white"/>
</svg>
